<?xml version="1.0" standalone="no"?>
<!DOCTYPE svg PUBLIC "-//W3C//DTD SVG 20010904//EN"
 "http://www.w3.org/TR/2001/REC-SVG-20010904/DTD/svg10.dtd">
<svg version="1.0" xmlns="http://www.w3.org/2000/svg"
 width="200.000000pt" height="200.000000pt" viewBox="0 0 200.000000 200.000000"
 preserveAspectRatio="xMidYMid meet">
<metadata>
Created by potrace 1.14, written by Peter Selinger 2001-2017
</metadata>
<g transform="translate(0.000000,200.000000) scale(0.100000,-0.100000)"
fill="#000000" stroke="none">
<path d="M795 1926 c-135 -44 -249 -117 -338 -218 l-56 -62 -48 27 c-70 38
-168 51 -270 37 -62 -9 -83 -16 -83 -27 0 -12 8 -14 32 -9 18 3 74 9 123 12
84 6 94 5 140 -19 94 -48 91 -41 47 -137 -41 -88 -60 -146 -87 -262 -18 -79
-20 -282 -4 -372 14 -83 27 -146 35 -175 5 -17 4 -22 -4 -17 -13 8 -97 -33
-127 -61 -11 -11 -27 -17 -34 -15 -8 3 -11 0 -7 -7 4 -6 4 -11 -1 -12 -29 -3
-50 -7 -67 -14 -13 -6 -17 -5 -13 3 4 6 29 18 55 28 54 21 145 75 137 82 -2 3
-11 -1 -19 -7 -8 -7 -27 -14 -41 -15 -14 -2 -33 -11 -43 -20 -9 -10 -39 -30
-66 -45 -43 -24 -71 -61 -46 -61 12 0 22 17 13 23 -5 2 -2 2 5 0 7 -1 22 2 33
7 37 20 18 1 -21 -21 -28 -16 -36 -25 -28 -31 7 -4 8 -8 3 -8 -6 0 -12 -29
-13 -66 -2 -62 -1 -66 17 -61 30 7 37 -24 9 -44 -27 -21 -34 -73 -9 -64 13 4
13 2 -1 -9 -32 -24 -19 -25 23 -1 69 38 77 18 13 -31 -31 -24 -52 -44 -46 -44
6 0 14 5 17 10 3 6 11 10 16 10 6 0 7 -5 3 -12 -4 -7 -3 -8 5 -4 6 4 9 12 6
17 -6 8 8 13 27 10 4 0 24 8 44 20 69 38 44 12 -38 -42 -46 -30 -84 -60 -86
-68 -2 -8 16 1 40 21 43 35 80 58 94 58 4 0 -6 -10 -22 -22 -46 -34 -51 -40
-29 -33 16 6 16 3 -5 -14 -27 -23 -45 -28 -34 -9 4 6 3 8 -4 5 -10 -7 -11 -32
-1 -42 3 -3 14 4 24 15 10 11 23 20 28 20 6 0 1 -10 -11 -23 -12 -13 -19 -27
-15 -30 3 -4 0 -7 -8 -7 -9 0 -24 -7 -35 -16 -18 -14 -18 -15 4 -4 13 6 30 9
38 6 10 -4 12 -2 8 6 -5 8 -1 9 12 5 18 -7 18 -6 1 7 -17 13 -16 15 12 36 37
26 61 17 34 -13 -14 -16 -10 -15 22 6 44 30 64 35 45 12 -7 -9 7 -4 31 10 52
29 68 32 46 7 -10 -10 -17 -21 -17 -25 0 -9 73 23 95 42 11 10 27 22 35 27 12
7 12 4 -1 -16 -9 -14 -21 -25 -27 -25 -6 0 -17 -6 -24 -14 -11 -12 -10 -13 5
-8 12 5 16 3 11 -5 -5 -8 -2 -9 9 -5 31 12 18 -2 -26 -28 -48 -27 -62 -31 -51
-13 4 7 3 8 -5 4 -6 -4 -9 -11 -6 -15 2 -5 -13 -21 -35 -36 -22 -15 -40 -29
-40 -31 0 -9 40 -3 52 8 61 57 168 107 155 73 -4 -9 -1 -15 8 -15 8 0 15 5 15
10 0 6 6 9 13 8 6 -2 11 2 10 9 -4 18 56 58 69 45 6 -6 -6 -22 -37 -47 -54
-45 -53 -61 2 -18 54 42 74 51 33 15 -40 -36 -27 -43 16 -10 28 21 28 21 11 1
-13 -14 -15 -22 -6 -25 6 -2 -1 -12 -17 -23 -24 -15 -27 -16 -15 -2 8 10 9 17
3 17 -20 0 -25 -23 -7 -36 15 -11 24 -10 60 11 49 29 63 32 44 8 -13 -16 -12
-17 3 -5 10 8 16 19 15 24 -1 6 4 13 12 16 9 3 11 0 6 -8 -5 -9 -4 -11 4 -6 6
4 9 12 6 17 -3 5 9 18 27 29 43 26 60 25 28 -1 -24 -19 -24 -20 -2 -9 39 19
49 4 12 -18 -19 -12 -31 -22 -27 -22 17 0 67 35 67 46 0 13 68 59 76 52 7 -8
-54 -57 -62 -50 -4 4 -4 2 -1 -5 4 -7 -16 -28 -50 -52 -32 -23 -53 -41 -48
-41 6 0 34 18 64 40 54 39 54 39 72 19 10 -12 24 -19 31 -16 10 4 10 6 0 6
-16 1 -6 13 49 54 36 27 55 35 45 18 -4 -5 3 -7 14 -4 30 8 24 0 -24 -35 -54
-39 -68 -41 -35 -5 l24 26 -33 -24 c-18 -13 -28 -25 -22 -27 8 -3 7 -8 -1 -18
-22 -27 2 -14 64 35 52 40 73 49 119 55 51 7 57 5 63 -13 3 -12 12 -21 18 -21
7 0 20 -9 30 -20 9 -11 24 -20 32 -20 10 0 13 -5 9 -12 -4 -7 2 -4 14 6 12 11
20 21 17 24 -3 3 1 12 8 21 6 8 -3 5 -21 -8 -18 -13 -36 -20 -40 -16 -4 3 0
11 9 16 27 14 51 57 37 65 -6 4 -8 3 -5 -4 8 -12 -51 -65 -64 -56 -13 8 7 41
37 60 23 16 26 16 49 -6 18 -17 30 -21 51 -16 24 6 26 5 14 -9 -11 -13 -10
-15 6 -9 10 4 22 9 27 11 4 3 41 5 82 6 110 3 106 -3 171 257 19 76 37 123 67
170 61 98 101 211 99 289 -1 83 -16 118 -54 127 -24 5 -27 8 -17 16 11 8 10 8
-5 4 -12 -4 -35 6 -67 29 -27 19 -54 35 -59 35 -6 0 -10 7 -10 16 0 8 -4 12
-10 9 -5 -3 -10 1 -10 9 0 17 -38 42 -59 37 -8 -1 -10 2 -5 10 5 9 2 10 -10 6
-9 -4 -15 -3 -13 1 7 10 -19 32 -29 24 -4 -4 -4 -1 0 6 6 11 11 11 24 0 10 -8
13 -8 9 -1 -4 6 -1 14 5 16 11 5 -14 11 -33 9 -3 -1 -4 10 -1 23 4 23 5 23 27
9 13 -9 32 -14 42 -13 10 2 40 -10 66 -25 68 -40 69 -39 82 133 l6 84 -63 62
c-41 39 -77 65 -103 73 -22 6 -49 18 -60 27 -17 13 -18 16 -5 25 8 5 22 8 30
6 8 -3 26 -8 40 -12 22 -6 23 -5 12 9 -8 9 -24 19 -35 23 -12 4 -33 14 -47 24
-33 22 -177 80 -201 80 -11 0 -19 5 -19 10 0 12 47 6 124 -16 27 -8 52 -14 55
-13 12 1 -75 38 -91 38 -10 1 -18 5 -18 10 0 5 -13 14 -30 20 -45 15 -37 30
13 20 64 -12 66 -10 12 16 -62 29 -42 31 50 6 82 -23 97 -21 28 4 -26 9 -59
23 -73 30 -14 7 -31 10 -39 7 -9 -3 -11 1 -6 17 5 17 3 20 -12 14 -15 -5 -16
-3 -6 7 10 11 27 10 95 -4 46 -10 91 -22 101 -27 10 -6 17 -6 17 -1 0 12 -99
56 -165 74 -35 10 -71 12 -120 7 -64 -7 -96 -6 -210 6 -25 3 -66 -4 -110 -19z
m511 -271 c115 -34 134 -45 64 -39 -42 4 -63 1 -90 -14 -28 -15 -40 -17 -67
-9 -49 15 -40 27 15 22 36 -4 42 -3 25 4 -13 6 -23 15 -23 21 0 5 -3 9 -7 9
-23 -4 -42 3 -47 16 -8 22 27 19 130 -10z m-542 -87 c9 -12 16 -35 16 -51 l0
-29 -50 42 c-28 23 -47 46 -44 51 11 18 63 9 78 -13z m380 -40 c-5 -10 -4 -10
5 -2 13 12 61 7 61 -6 0 -14 -38 -22 -70 -15 -33 7 -39 21 -12 28 9 3 18 5 20
6 2 0 0 -5 -4 -11z m-324 -61 c0 -18 -7 -42 -15 -53 -13 -17 -14 -16 -4 14 6
18 9 41 6 52 -3 11 -1 20 4 20 5 0 9 -15 9 -33z m-110 -336 c16 -31 12 -77 -9
-102 -16 -20 -23 -22 -38 -13 -13 9 -18 24 -17 57 0 67 40 103 64 58z m639
-25 c16 -35 5 -93 -21 -110 -45 -28 -81 82 -41 126 22 25 45 19 62 -16z m-164
-190 c28 -7 66 -21 85 -31 39 -20 150 -127 150 -145 0 -6 -5 -8 -10 -5 -10 6
7 -40 22 -62 5 -6 11 -31 13 -55 2 -23 6 -59 9 -78 5 -30 5 -31 -3 -8 -32 95
-133 184 -279 244 -32 13 -48 24 -37 24 20 1 20 1 1 15 -22 17 -22 17 19 31
20 6 31 17 33 32 2 12 0 22 -5 20 -4 -1 -24 6 -43 14 -43 20 -21 22 45 4z
m-78 -112 c-3 -3 -12 -4 -19 -1 -8 3 -5 6 6 6 11 1 17 -2 13 -5z m46 -75 c72
-24 154 -76 184 -117 12 -17 25 -50 28 -75 19 -137 -185 -307 -368 -307 -146
0 -306 76 -367 175 -30 48 -41 122 -25 161 33 79 159 163 275 183 76 14 201 4
273 -20z m-888 -129 c-3 -5 -16 -15 -28 -21 -19 -9 -19 -8 3 10 28 23 34 26
25 11z m-177 -32 c-3 -13 -60 -58 -74 -58 -3 0 -1 7 6 15 7 8 9 15 4 15 -7 1
53 38 64 40 1 0 1 -6 0 -12z m263 -22 c-6 -7 -22 -16 -34 -19 -19 -5 -18 -3 8
18 30 25 46 26 26 1z m-304 -44 c-10 -10 -14 -23 -10 -27 5 -5 0 -3 -10 5 -17
13 -17 14 5 26 31 18 34 17 15 -4z m93 14 c0 -2 -8 -10 -17 -17 -16 -13 -17
-12 -4 4 13 16 21 21 21 13z m-45 -36 c-3 -5 -16 -15 -28 -21 -19 -9 -19 -8 3
10 28 23 34 26 25 11z m59 -8 c3 -5 -1 -9 -9 -9 -8 0 -12 4 -9 9 3 4 7 8 9 8
2 0 6 -4 9 -8z m-34 -17 c0 -2 -10 -9 -22 -15 -22 -11 -22 -10 -4 4 21 17 26
19 26 11z m125 -15 c-3 -5 -12 -10 -18 -10 -7 0 -6 4 3 10 19 12 23 12 15 0z
m-26 -23 c-2 -2 -20 -14 -39 -27 l-35 -24 24 27 c14 15 31 27 39 27 9 0 13 -1
11 -3z m96 -77 c-33 -22 -71 -47 -85 -57 l-25 -17 20 22 c22 23 124 89 140 91
6 0 -17 -17 -50 -39z m-280 -20 c-3 -5 -12 -10 -18 -10 -7 0 -6 4 3 10 19 12
23 12 15 0z m245 -61 c0 -5 -4 -9 -8 -9 -5 0 -9 7 -9 15 0 8 4 12 9 9 4 -3 8
-9 8 -15z m71 -40 c-13 -11 -21 -22 -18 -26 4 -3 14 0 24 8 11 9 14 10 9 2 -4
-7 -16 -18 -28 -24 -16 -9 -19 -8 -13 2 6 9 4 11 -7 6 -11 -4 -15 0 -14 10 3
19 34 43 55 43 12 -1 10 -6 -8 -21z m-186 -35 l-30 -25 35 16 c34 15 34 15 11
-2 -21 -15 -81 -28 -81 -17 0 4 83 54 90 54 3 0 -8 -12 -25 -26z m-40 6 c-3
-5 -12 -10 -18 -10 -7 0 -6 4 3 10 19 12 23 12 15 0z m119 -27 c-23 -17 -35
-17 -28 0 2 7 14 13 25 13 19 0 19 -1 3 -13z m176 3 c0 -2 -8 -10 -17 -17 -16
-13 -17 -12 -4 4 13 16 21 21 21 13z m70 -13 c0 -12 -71 -52 -84 -47 -16 6
-13 24 5 24 6 0 7 -5 3 -12 -4 -7 -3 -8 5 -4 6 4 9 11 6 16 -7 11 24 29 47 27
10 -1 18 -2 18 -4z m95 -97 c-39 -33 -59 -40 -37 -13 7 8 9 16 6 19 -3 3 0 9
7 14 8 4 10 3 5 -4 -10 -17 6 -15 30 3 36 27 29 15 -11 -19z"/>
<path d="M839 598 c-12 -22 -8 -156 6 -190 9 -24 43 -32 62 -17 12 11 14 31
11 105 -4 95 -15 124 -49 124 -10 0 -24 -10 -30 -22z"/>
<path d="M1078 598 c-17 -31 -16 -181 1 -202 17 -21 45 -20 62 1 17 20 17 169
0 201 -15 28 -47 28 -63 0z"/>
<path d="M50 550 c-9 -6 -10 -10 -3 -10 6 0 15 5 18 10 8 12 4 12 -15 0z"/>
<path d="M1697 1380 c33 -50 63 -127 93 -240 l20 -75 -5 75 c-4 60 -13 91 -45
155 -21 44 -51 91 -66 105 l-27 25 30 -45z"/>
<path d="M1750 1389 c0 -4 7 -22 15 -40 8 -19 14 -27 14 -19 0 14 -28 72 -29
59z"/>
<path d="M1630 1331 c0 -6 17 -37 38 -69 60 -89 88 -175 108 -327 6 -46 7 -48
16 -25 17 42 3 183 -22 237 -40 84 -140 216 -140 184z"/>
<path d="M307 123 c-3 -5 6 -9 20 -10 19 -1 22 1 12 8 -17 11 -26 11 -32 2z"/>
<path d="M120 80 c-14 -11 -20 -20 -14 -20 6 0 19 9 29 20 23 25 17 25 -15 0z"/>
<path d="M179 73 c-13 -16 -12 -17 4 -4 9 7 17 15 17 17 0 8 -8 3 -21 -13z"/>
<path d="M125 39 c-16 -10 -25 -19 -19 -19 7 0 22 9 35 20 30 24 23 24 -16 -1z"/>
<path d="M460 40 c-6 -11 -7 -20 -2 -20 10 0 32 21 32 32 0 16 -19 8 -30 -12z"/>
<path d="M85 40 c-3 -6 1 -7 9 -4 18 7 21 14 7 14 -6 0 -13 -4 -16 -10z"/>
<path d="M144 15 c-10 -8 -14 -15 -8 -15 6 0 17 7 24 15 16 19 9 19 -16 0z"/>
<path d="M755 10 c-3 -6 1 -7 9 -4 18 7 21 14 7 14 -6 0 -13 -4 -16 -10z"/>
</g>
</svg>
